<svg xmlns="http://www.w3.org/2000/svg" version="1.1" xmlns:xlink="http://www.w3.org/1999/xlink" xmlns:svgjs="http://svgjs.com/svgjs" width="1000" height="1000"><rect width="1000" height="1000" rx="200" ry="200" fill="#212121"></rect><g transform="matrix(1,0,0,1,0,0)"><svg xmlns="http://www.w3.org/2000/svg" version="1.1" xmlns:xlink="http://www.w3.org/1999/xlink" xmlns:svgjs="http://svgjs.com/svgjs" width="752pt" height="752pt"><svg width="752pt" height="752pt" version="1.1" viewBox="0 0 752 752" xmlns="http://www.w3.org/2000/svg">
 <path d="m205.51 461.25h56.832c4.2617 0 8.5234 0.94531 12.312 2.8398-1.8945-3.7891-2.8398-8.0508-2.8398-12.312v-56.828c0-15.629 12.785-28.414 28.414-28.414h56.828c4.2617 0 8.5234 0.94531 12.312 2.8398-1.8945-3.7891-2.8398-8.0508-2.8398-12.312v-56.832c0-15.629 12.785-28.414 28.414-28.414h56.832c4.2617 0 8.5234 0.94531 12.312 2.8398-1.8945-3.7891-2.8398-8.0508-2.8398-12.312l-0.003906-56.828c0-15.629 12.785-28.414 28.414-28.414h56.832c15.629 0 28.414 12.785 28.414 28.414v56.828c0 7.1055-2.8398 13.734-7.1055 18.941 4.7344 5.2109 7.1055 11.84 7.1055 18.941v56.828c0 7.1055-2.8398 13.734-7.1055 18.941 4.7344 5.2109 7.1055 11.84 7.1055 18.941v56.828c0 7.1055-2.8398 13.734-7.1055 18.941 4.7344 5.2109 7.1055 11.84 7.1055 18.941v56.828c0 15.629-12.785 28.414-28.414 28.414h-56.828c-7.1055 0-13.734-2.8398-18.941-7.1055-5.2109 4.7344-11.84 7.1055-18.941 7.1055h-56.828c-7.1055 0-13.734-2.8398-18.941-7.1055-5.2109 4.7344-11.84 7.1055-18.941 7.1055h-56.828c-7.1055 0-13.734-2.8398-18.941-7.1055-5.2109 4.7344-11.84 7.1055-18.941 7.1055h-56.828c-15.629 0-28.414-12.785-28.414-28.414l-0.019531-56.812c0-15.629 12.789-28.414 28.414-28.414zm151.55-75.773h-56.828c-5.2109 0-9.4727 4.2617-9.4727 9.4727v56.828c0 5.2109 4.2617 9.4727 9.4727 9.4727h56.828c5.2109 0 9.4727-4.2617 9.4727-9.4727v-56.828c0-5.2109-4.2617-9.4727-9.4727-9.4727zm198.91 66.301v-56.828c0-5.2109-4.2617-9.4727-9.4727-9.4727h-56.828c-5.2109 0-9.4727 4.2617-9.4727 9.4727v56.828c0 5.2109 4.2617 9.4727 9.4727 9.4727h56.828c5.207 0 9.4727-4.2617 9.4727-9.4727zm0-94.715v-56.832c0-5.2109-4.2617-9.4727-9.4727-9.4727h-56.828c-5.2109 0-9.4727 4.2617-9.4727 9.4727v56.828c0 5.2109 4.2617 9.4727 9.4727 9.4727l56.828 0.003906c5.207 0 9.4727-4.2656 9.4727-9.4727zm-94.719 94.715v-56.828c0-5.2109-4.2617-9.4727-9.4727-9.4727h-56.828c-5.2109 0-9.4727 4.2617-9.4727 9.4727v56.828c0 5.2109 4.2617 9.4727 9.4727 9.4727h56.832c5.207 0 9.4688-4.2617 9.4688-9.4727zm-9.4688-161.02h-56.828c-5.2109 0-9.4727 4.2617-9.4727 9.4727v56.828c0 5.2109 4.2617 9.4727 9.4727 9.4727h56.828c5.2109 0 9.4727-4.2617 9.4727-9.4727l-0.003906-56.832c0-5.207-4.2617-9.4688-9.4688-9.4688zm104.19-85.246c0-5.2109-4.2617-9.4727-9.4727-9.4727h-56.828c-5.2109 0-9.4727 4.2617-9.4727 9.4727v56.828c0 5.2109 4.2617 9.4727 9.4727 9.4727h56.828c5.2109 0 9.4727-4.2617 9.4727-9.4727zm-66.305 350.45h56.832c5.2109 0 9.4727-4.2617 9.4727-9.4727v-56.828c0-5.2109-4.2617-9.4727-9.4727-9.4727h-56.828c-5.2109 0-9.4727 4.2617-9.4727 9.4727v56.828c0 5.2109 4.2617 9.4727 9.4688 9.4727zm-94.715 0h56.832c5.2109 0 9.4727-4.2617 9.4727-9.4727l-0.003906-56.828c0-5.2109-4.2617-9.4727-9.4727-9.4727h-56.828c-5.2109 0-9.4727 4.2617-9.4727 9.4727v56.828c0 5.2109 4.2656 9.4727 9.4727 9.4727zm-94.715 0h56.828c5.2109 0 9.4727-4.2617 9.4727-9.4727v-56.828c0-5.2109-4.2617-9.4727-9.4727-9.4727h-56.828c-5.2109 0-9.4727 4.2617-9.4727 9.4727v56.828c0 5.2109 4.2617 9.4727 9.4727 9.4727zm-104.19-9.4688c0 5.2109 4.2617 9.4727 9.4727 9.4727l56.828-0.003906c5.2109 0 9.4727-4.2617 9.4727-9.4727v-56.828c0-5.2109-4.2617-9.4727-9.4727-9.4727h-56.828c-5.2109 0-9.4727 4.2617-9.4727 9.4727z" fill="#fff"></path>
</svg></svg></g></svg>